# xmcd CD database file
#
# Track frame offsets:
#	150
#	18007
#	35520
#	51837
#	65100
#	75207
#	87337
#	106100
#	120870
#	134090
#	149582
#	168090
#	184005
#	200340
#	217147
#	232230
#	248220
#	261692
#	279007
#	293050
#	309995
#
# Disc length: 4325 seconds
#
# Revision: 0
# Processed by: cddbd v1.5.2PL0 Copyright (c) Steve Scherf et al.
# Submitted via: CDex 1.70beta2
#
DISCID=2f10e315
DTITLE=Jones Country - Jones Country JCY-009
DYEAR=0000
DGENRE=Country
TTITLE0=Ray Price/She's GotTo Be A Saint
TTITLE1=Ray Price/Best Thing That Ever Happened To Me
TTITLE2=Charley Pride/Roll On Mississippi
TTITLE3=Charley Pride/She's Too Good To Be True
TTITLE4=Charley Pride/Someone Loves You Honey
TTITLE5=Charley Pride/When I Stop Leaving (I'll Be Gone)
TTITLE6=Charley Pride/Where Do I Put Her Memory
TTITLE7=Eddie Rabbitt/American Boy
TTITLE8=Eddie Rabbitt/Every Which Way But Loose
TTITLE9=Eddie Rabbitt/Gone Too Far
TTITLE10=Eddie Rabbitt/I Just Want To Love You
TTITLE11=Eddie Rabbitt/Someone Could Lose A Heart Tonight
TTITLE12=Eddie Rabbitt/We Can't Go On Living Like This
TTITLE13=Eddie Rabbitt/You Can't Run From Love
TTITLE14=Eddie Rabbitt/You Don't Love Me Anymore
TTITLE15=Eddie Raven/Shine, Shine, Shine
TTITLE16=Jim Reeves/Distant Drums
TTITLE17=Restless Heart/Wheels
TTITLE18=Charlie Rich/Every Time You Touch Me (I Get High)
TTITLE19=Marty Robbins/Ballad Of The Alamo
TTITLE20=Marty Robbins/Don't Worry
EXTD=YEAR: 0000
EXTT0=
EXTT1=
EXTT2=
EXTT3=
EXTT4=
EXTT5=
EXTT6=
EXTT7=
EXTT8=
EXTT9=
EXTT10=
EXTT11=
EXTT12=
EXTT13=
EXTT14=
EXTT15=
EXTT16=
EXTT17=
EXTT18=
EXTT19=
EXTT20=
PLAYORDER=
